# xmcd
#
# Track frame offsets:
# 150
# 12676
# 26032
# 41477
# 56891
# 70994
# 88181
# 103403
# 119712
# 135974
# 152381
# 167985
# 184272
# 200316
# 225261
# 239150
# 253940
# 270870
# 283149
# 298841
# 315867
# 328779
#
# Disc length: 4617 seconds
#
#
# Revision: 0
# Processed by: cddbd v1.5.2PL0 Copyright (c) Steve Scherf et al.
# Submitted via: FreeRIP 2.951 
#
DISCID=4d120716
DTITLE=MC and R - Ao vivo em goiania 2009
DYEAR=1900
DGENRE=sertanejo universitario
TTITLE0=Mato e morro por vc
TTITLE1=Cade vc?
TTITLE2=Vc de volta
TTITLE3=Bastavc me olhar
TTITLE4=Quem ama cuida
TTITLE5=Primeiro passo
TTITLE6=Vc me paga
TTITLE7=Delicia
TTITLE8=Coisas esotericas
TTITLE9=A fila andou
TTITLE10=Evidencias
TTITLE11=Cego, surdo e mudo
TTITLE12=Deixa eu te amar
TTITLE13=put porri
TTITLE14=nos dois
TTITLE15=vou jogar a chave fora
TTITLE16=Meu e seu
TTITLE17=vem ser feliz
TTITLE18=Bagunça meu coração
TTITLE19=Somos assim
TTITLE20=Ela nao me quer
TTITLE21=pode ser pra valer
EXTD=
EXTT0=
EXTT1=
EXTT2=
EXTT3=
EXTT4=
EXTT5=
EXTT6=
EXTT7=
EXTT8=
EXTT9=
EXTT10=
EXTT11=
EXTT12=
EXTT13=
EXTT14=
EXTT15=
EXTT16=
EXTT17=
EXTT18=
EXTT19=
EXTT20=
EXTT21=
PLAYORDER=
